# xmcd
#
# Track frame offsets:
#	183
#	15685
#	27365
#	43095
#	57613
#	71820
#	85753
#	97665
#	109503
#	125248
#
# Disc length: 1824 seconds
#
# Revision: 1
# Processed by: cddbd v1.5.2PL0 Copyright (c) Steve Scherf et al.
# Submitted via: EasyCDDAExtractor 12.0.0.1
#
DISCID=84071e0a
DTITLE=Yolandita Monge - Cierra Los Ojos Y Juntos Recordemos
DYEAR=1975
DGENRE=Latin
TTITLE0=Cierra Los Ojos Y Juntos Recordemos
TTITLE1=Cuando Estemos Lejos
TTITLE2=Adios Amor Adios
TTITLE3=Alguien A Quien Se Amo De Mas
TTITLE4=No Soy Lisa
TTITLE5=Una Sonrisa Una Lagrima
TTITLE6=Un Ser Muy Triste
TTITLE7=Cada Noche Mia
TTITLE8=La Vida En Un Segundo
TTITLE9=Te Llevo Conmigo
EXTD=ID3G: 116
EXTT0=
EXTT1=
EXTT2=
EXTT3=
EXTT4=
EXTT5=
EXTT6=
EXTT7=
EXTT8=
EXTT9=
PLAYORDER=
